<?xml version="1.0" encoding="iso-8859-1"?>
<!-- Generator: Adobe Illustrator 16.0.0, SVG Export Plug-In . SVG Version: 6.00 Build 0)  -->
<!DOCTYPE svg PUBLIC "-//W3C//DTD SVG 1.1//EN" "http://www.w3.org/Graphics/SVG/1.1/DTD/svg11.dtd">
<svg version="1.1" id="Capa_1" xmlns="http://www.w3.org/2000/svg" xmlns:xlink="http://www.w3.org/1999/xlink" x="0px" y="0px"
	 width="99.667px" height="99.667px" viewBox="0 0 99.667 99.667" style="enable-background:new 0 0 99.667 99.667; fill:#30321c; stroke:#30321c"
	 xml:space="preserve">
<g>
	<path d="M58.438,85.811c-0.646,0.564-1.834-0.555-4.382,0.071c2.993-6.604,4.848-12.426,5.744-17.854
		c6.204-7.409,26.823-33.097,27.165-47.862c0.157-6.675-1.451-11.791-4.784-15.201C78.964,1.671,74.146,0,67.863,0
		c-0.431,0-0.855,0.007-1.272,0.021C60.252,0.234,51.712,4.707,48.79,12.75c-4.059-5.708-10.917-7.854-16.337-7.854
		c-1.535,0-2.979,0.166-4.293,0.495c-6.714,1.678-11.145,4.565-13.537,8.824c-2.376,4.22-2.56,9.647-0.554,16.134
		c4.293,13.8,30.238,32.288,38.912,38.161c-0.76,3.751-1.415,7.532-2.548,11.166c-1.636,5.264-4.853,8.316-11.138,8.419
		c-5.658,0.089-12.105-0.366-17.248,6.937c6.162,1.51,11.453,3.405,16.885,4.008c6.534,0.715,13.222,0.831,19.78,0.294
		c6.269-0.517,12.467-2.149,18.623-3.583c0.28-0.072,0.534-3.836-0.26-4.391C70.802,86.888,64.54,80.417,58.438,85.811z
		 M17.412,29.307c-1.711-5.53-1.622-10.03,0.258-13.377c1.903-3.371,5.607-5.705,11.334-7.137c1.026-0.257,2.217-0.391,3.441-0.391
		c5.558,0,12.927,2.678,15.401,10.226l3.038,9.279l0.374-9.755C51.642,8.168,61.508,3.701,66.7,3.528
		c0.376-0.014,0.767-0.021,1.156-0.021c5.38,0,9.24,1.28,11.813,3.908c2.642,2.709,3.915,6.973,3.785,12.671
		c-0.268,11.562-15.071,31.636-23.052,41.639c0.109-5.105-0.691-9.948-2.45-14.819h0.021l2.803-11.572c0,0-2.81,2.499-4.62,7.233
		c-2.43-5.234-5.818-10.634-10.178-16.603c2.923,9.329,8.33,20.511,8.33,30.084l-0.705,8.631
		C44.132,58.139,21.137,41.271,17.412,29.307z"/>
</g>
<g>
</g>
<g>
</g>
<g>
</g>
<g>
</g>
<g>
</g>
<g>
</g>
<g>
</g>
<g>
</g>
<g>
</g>
<g>
</g>
<g>
</g>
<g>
</g>
<g>
</g>
<g>
</g>
<g>
</g>
</svg>
